<?xml version="1.0" encoding="UTF-8"?><svg xmlns="http://www.w3.org/2000/svg" xmlns:xlink="http://www.w3.org/1999/xlink" fill-opacity="1" color-rendering="auto" color-interpolation="auto" text-rendering="auto" stroke="black" stroke-linecap="square" width="752" stroke-miterlimit="10" shape-rendering="auto" stroke-opacity="1" fill="black" stroke-dasharray="none" font-weight="normal" stroke-width="1" height="275" font-family="'Dialog'" font-style="normal" stroke-linejoin="miter" font-size="12px" stroke-dashoffset="0" image-rendering="auto">
  <!--Generated by ySVG 2.5-->
  <defs id="genericDefs"/>
  <g>
    <g stroke-linecap="butt" transform="matrix(1.2277,0,0,1.2277,62.6116,308.1473)" fill="rgb(255,108,0)" text-rendering="geometricPrecision" shape-rendering="geometricPrecision" stroke="rgb(255,108,0)" stroke-width="5" stroke-miterlimit="1.45">
      <path fill="none" d="M106.0125 -161 L388.3553 -161" clip-path="url(#clipPath2)"/>
    </g>
    <g stroke-linecap="butt" transform="matrix(1.2277,0,0,1.2277,62.6116,308.1473)" fill="rgb(255,108,0)" text-rendering="geometricPrecision" shape-rendering="geometricPrecision" stroke="rgb(255,108,0)" stroke-width="5" stroke-miterlimit="1.45">
      <path d="M404.8553 -161 L386.8553 -170 L386.8553 -152 Z" stroke="none" clip-path="url(#clipPath2)"/>
      <rect x="206.0519" y="-153.3555" clip-path="url(#clipPath2)" fill="white" width="98.7461" height="36.9766" stroke="none"/>
    </g>
    <g fill="white" text-rendering="geometricPrecision" stroke-miterlimit="1.6" shape-rendering="geometricPrecision" transform="matrix(1.2277,0,0,1.2277,62.6116,308.1473)" stroke="white">
      <rect fill="none" x="206.0519" width="98.7461" height="36.9766" y="-153.3555" clip-path="url(#clipPath2)"/>
    </g>
    <g stroke-linecap="butt" font-size="28px" transform="matrix(1.2277,0,0,1.2277,62.6116,308.1473)" fill="rgb(0,41,117)" text-rendering="geometricPrecision" font-family="sans-serif" shape-rendering="geometricPrecision" stroke="rgb(0,41,117)" stroke-miterlimit="1.45">
      <text x="208.0519" xml:space="preserve" y="-124.2852" clip-path="url(#clipPath2)" stroke="none">owns a</text>
    </g>
    <g text-rendering="geometricPrecision" shape-rendering="geometricPrecision" transform="matrix(0.678,0,0,0.6686,18.4152,18.4152)">
      <g clip-path="url(#clipPath3)">
        <svg opacity="1" writing-mode="lr-tb" shape-rendering="auto" stop-color="rgb(0, 0, 0)" glyph-orientation-horizontal="0deg" color-profile="auto" lighting-color="rgb(255, 255, 255)" color="rgb(0, 0, 0)" font-weight="400" alignment-baseline="auto" font-style="normal" color-interpolation-filters="linearrgb" text-anchor="start" stroke-linecap="butt" color-interpolation="srgb" font-variant="normal" word-spacing="normal" fill-opacity="1" text-rendering="auto" clip-path="none" text-decoration="none" letter-spacing="normal" glyph-orientation-vertical="auto" display="inline" font-size-adjust="none" fill="rgb(0, 0, 0)" overflow="hidden" font-stretch="normal" stroke-dasharray="none" stroke-miterlimit="4" stop-opacity="1" color-rendering="auto" font-size="12" mask="none" direction="ltr" baseline-shift="baseline" pointer-events="visiblepainted" enable-background="accumulate" fill-rule="nonzero" image-rendering="auto" stroke-dashoffset="0" marker-end="none" clip="auto" cursor="auto" filter="none" stroke="none" visibility="visible" kerning="auto" stroke-width="1" font-family="&quot;Arial&quot;,&quot;Helvetica&quot;,sans-serif" flood-opacity="1" clip-rule="nonzero" src="none" unicode-bidi="normal" stroke-linejoin="miter" stroke-opacity="1" flood-color="rgb(0, 0, 0)" dominant-baseline="auto" marker-start="none" marker-mid="none">
          <title>icons</title>
          <path style="fill:#242265" d="M.00077,108.05306l.25992,56.47835a79.8316,79.8316,0,0,0,40.198,68.90768L89.182,261.28734a79.71283,79.71283,0,0,0,79.77221-.37131L217.425,232.6148a79.79451,79.79451,0,0,0,39.57422-69.27157l-.25249-56.10493a79.76479,79.76479,0,0,0-40.20545-68.88541L167.818,10.50465a79.71281,79.71281,0,0,0-79.77221.38616L39.575,39.19947a79.72768,79.72768,0,0,0-39.57421,69.227"/>
          <path style="fill:#131333" d="M256.99918,163.3432l-.02288-5.08642c-1.91138-1.36908-4.85236-3.63123-6.12616-4.66987-30.59613-24.94647-61.10651-49.99865-91.79535-74.83032-5.51294-4.46075-10.29077-9.99133-17.0752-12.78186-1.90967,1.42786-1.05346,3.18994-.66955,4.95734,1.97882,9.11017-1.86945,15.23529-10.96094,17.31189-1.83209.41845-3.59686.65045-4.34833,2.686.92981,3.93109,4.50867,5.49176,7.10089,7.93524-.15332,2.50641,1.67121,2.38373,3.32056,2.50336,3.30811.23993,6.63776-.063,9.93665.37128,6.03552.79462,8.966,3.45532,9.936,9.36993,2.13666,13.02777,1.0907,26.15406.98676,39.24488a6.90613,6.90613,0,0,1-5.32886,6.98907c-1.3711.41785-5.19037.47351-4.95282,2.62561v55c-13.2536,1.87793-22.80286.16052-36,2,8.508,7.32935,15.54767,16.45117,22.87585,22.92944C142.6,247.611,152.94846,256.49731,161,264.96936l.019-.0047a79.777,79.777,0,0,0,7.93518-4.04864L217.425,232.61481A79.79453,79.79453,0,0,0,256.99918,163.3432Z"/>
          <path style="fill:aqua" d="M133.10163,98.86525c4.9742.06237,9.96247-.08765,14.919.24115,6.11669.40578,10.15689,3.95888,10.86438,9.7398,1.88028,15.364.8644,30.80209.80655,46.21313a5.18793,5.18793,0,0,1-1.66346,3.83894c-2.59725,1.75909-5.84472.90024-8.92792,1.14052-1.16034,2.507-1.07613,5.18738-1.07767,7.851-.008,13.82122.01471,27.6425-.02856,41.4636-.00768,2.45308.40467,5.03373-2.0978,8.20255-11.19424.90872-23.17619.36316-34.18892.25319-2.97151-2.707-2.71609-5.1447-2.66973-7.43227.29-14.30548-.8499-28.63751.81777-42.9196a13.17957,13.17957,0,0,0-.99462-7.33775c-2.92293,3.3571-5.82678,2.24844-8.72559-.03731a14.08675,14.08675,0,0,1-1.12423-5.83063c-.00127-14.2904-.10577-28.582.05067-42.87072.084-7.67249,4.35831-11.98131,12.11016-12.28945C118.4731,98.80113,125.791,98.92408,133.10163,98.86525Z"/>
          <path style="fill:aqua" d="M141.97961,65.97473c7.92906,12.75408-2.12921,26.84158-15.97878,24.95561-.89251-.43483-1.76285-.924-2.68091-1.2951-6.52475-2.6373-10.03437-7.45573-10.078-14.49171a15.3265,15.3265,0,0,1,9.60282-14.39108c6.70782-2.57355,12.65694-1.36862,17.7106,3.83849C141.01614,65.06574,141.50421,65.5141,141.97961,65.97473Z"/>
          <path style="fill:#131333" d="M100.13505,160.08217q4.36393.01737,8.72673.036c-.06343,2.59613.62355,5.25688-.77949,8.1566A15.54246,15.54246,0,0,1,100.13505,160.08217Z"/>
        </svg>
      </g>
    </g>
    <g fill="white" text-rendering="geometricPrecision" shape-rendering="geometricPrecision" transform="matrix(1.2277,0,0,1.2277,62.6116,308.1473)" stroke="white">
      <rect x="-1.7676" width="73.5352" height="36.9766" y="-78.9983" clip-path="url(#clipPath2)" stroke="none"/>
      <rect x="-1.7676" y="-78.9983" clip-path="url(#clipPath2)" fill="none" width="73.5352" height="36.9766" stroke-miterlimit="1.6"/>
    </g>
    <g stroke-linecap="butt" font-size="28px" transform="matrix(1.2277,0,0,1.2277,62.6116,308.1473)" fill="rgb(0,41,117)" text-rendering="geometricPrecision" font-family="sans-serif" shape-rendering="geometricPrecision" stroke="rgb(0,41,117)" stroke-miterlimit="1.45">
      <text x="0.2324" xml:space="preserve" y="-49.928" clip-path="url(#clipPath2)" stroke="none">Anna</text>
    </g>
    <g text-rendering="geometricPrecision" shape-rendering="geometricPrecision" transform="matrix(0.678,0,0,0.6686,559.668,18.4152)">
      <g clip-path="url(#clipPath4)">
        <svg opacity="1" writing-mode="lr-tb" shape-rendering="auto" stop-color="rgb(0, 0, 0)" glyph-orientation-horizontal="0deg" color-profile="auto" lighting-color="rgb(255, 255, 255)" color="rgb(0, 0, 0)" font-weight="400" alignment-baseline="auto" font-style="normal" color-interpolation-filters="linearrgb" text-anchor="start" stroke-linecap="butt" color-interpolation="srgb" font-variant="normal" word-spacing="normal" fill-opacity="1" text-rendering="auto" clip-path="none" text-decoration="none" letter-spacing="normal" glyph-orientation-vertical="auto" display="inline" font-size-adjust="none" data-name="Layer 1" fill="rgb(0, 0, 0)" overflow="hidden" font-stretch="normal" stroke-dasharray="none" id="svg2.Layer_1" stroke-miterlimit="4" stop-opacity="1" color-rendering="auto" font-size="12" mask="none" direction="ltr" baseline-shift="baseline" pointer-events="visiblepainted" enable-background="accumulate" fill-rule="nonzero" image-rendering="auto" stroke-dashoffset="0" marker-end="none" clip="auto" cursor="auto" stroke="none" filter="none" visibility="visible" kerning="auto" stroke-width="1" font-family="&quot;Arial&quot;,&quot;Helvetica&quot;,sans-serif" flood-opacity="1" clip-rule="nonzero" src="none" unicode-bidi="normal" stroke-linejoin="miter" stroke-opacity="1" flood-color="rgb(0, 0, 0)" dominant-baseline="auto" marker-start="none" marker-mid="none">
          <defs>
            <style>.cls-1{fill:#242265;}.cls-2{fill:#131333;}.cls-3{fill:#fcfe1f;}.cls-4{fill:#999216;}</style>
            <clipPath clipPathUnits="userSpaceOnUse" id="clipPath1">
              <path d="M0 0 L752 0 L752 275 L0 275 L0 0 Z"/>
            </clipPath>
            <clipPath clipPathUnits="userSpaceOnUse" id="clipPath2">
              <path d="M-51 -251 L561.5382 -251 L561.5382 -27 L-51 -27 L-51 -251 Z"/>
            </clipPath>
            <clipPath clipPathUnits="userSpaceOnUse" id="clipPath3">
              <path d="M-27.1612 -27.5435 L1081.9895 -27.5435 L1081.9895 383.7726 L-27.1612 383.7726 L-27.1612 -27.5435 Z"/>
            </clipPath>
            <clipPath clipPathUnits="userSpaceOnUse" id="clipPath4">
              <path d="M-825.4802 -27.5431 L283.6794 -27.5431 L283.6794 383.7678 L-825.4802 383.7678 L-825.4802 -27.5431 Z"/>
            </clipPath>
          </defs>
          <title>auto</title>
          <path class="cls-1" d="M0,108.05l.26,56.48a79.83,79.83,0,0,0,40.2,68.91l48.72,27.85a79.74,79.74,0,0,0,79.77-.37l48.48-28.31A79.79,79.79,0,0,0,257,163.34l-.25-56.1a79.77,79.77,0,0,0-40.21-68.89L167.82,10.5a79.72,79.72,0,0,0-79.77.39L39.58,39.2A79.73,79.73,0,0,0,0,108.43"/>
          <path class="cls-2" d="M70.8,198.61c22,17.82,59.36,49.06,83.71,68.94a79.9,79.9,0,0,0,14.06-6.47L217,232.78a79.77,79.77,0,0,0,39.54-66.84c-6.25-5-15.08-11.75-15.78-12.24-12.05-8.52-19.38-17.39-32.73-24.17-2.42,3.15-3.27,3.9-2.19,6.69,2.59,6.66,5.66,13.13,8.12,19.85,1.23,3.37,1.42,6.62-2.42,8.59-7.2,3.7-17.11.54-21-6.36-4.69-8.32-11.28-13.74-21.51-13.54-10,.19-16.66,5.25-20.69,13.87-2.38,5.1-5.95,7.16-11.35,7.14-9.8,0-19.62-.08-29.43,0-5.48.05-9.23-2.12-11.28-7.24a21.71,21.71,0,0,0-1.63-3.09C90,147.68,80.38,143.4,71.05,145c-8.53,1.44-16.69,9.33-18.47,17.61-.51,2.36-.32,4.2,1.72,5.63l-18.64,1.95Z"/>
          <path class="cls-2" d="M173.39,129.86c-3.21-12.88-9.82-26.07-17.59-36.68,4.34,1.54,41,32.78,44,38Z"/>
          <path class="cls-3" d="M210.9,131.12c4.32,10.45,8.7,20.89,12.94,31.38,1.91,4.72-.1,8.56-4.72,9.06-7.18.78-14.51.2-22.17.2-3.19-12-9-21.19-22.69-20.65-12.35.5-17.78,9-20.36,20.4H102.47c-3.49-13.41-10.72-23-26.3-19.82C65.7,153.79,60.93,161.64,60,172c-6.31,0-12.63.11-19-.05-6.48-.18-9.29-3.72-7.28-9.88,3.09-9.48,6.47-18.88,10.19-28.13,2.72-6.77,9.2-5.06,14.38-4.79,7.06.37,9.57-2.08,9.81-9.31.94-28.42,13-39.76,41.34-39.81,16.71,0,33.58-.73,46.31,13.18,10.12,7.94,15.46,18.81,18.93,30.84a29.72,29.72,0,0,0,2,4.52c10.57,2.65,14.28.08,23.19.45C203.68,129.14,207.56,128.68,210.9,131.12Z"/>
          <path class="cls-4" d="M174.85,192a17.49,17.49,0,0,1-17.57-17.41c0-.13,0-.25,0-.37,0-9.48,8-17.12,17.78-17.11a17.45,17.45,0,0,1,.16,34.9Z"/>
          <path class="cls-4" d="M98.06,174.51c0,10.57-7,17.53-17.53,17.48a17.3,17.3,0,0,1-17.29-17.3v-.27a17.55,17.55,0,0,1,17.67-17.31C91,157.11,98,164.23,98.06,174.51Z"/>
          <path class="cls-2" d="M118.82,88.76c20.3-8.44,49.59,18.83,46.75,43.42H118.82Z"/>
          <path class="cls-2" d="M75.11,132.61c1.25-14.4-1.65-28.56,7.69-40,6.87-8.45,17-5.46,26.13-4.51,2.21.23,2.15,3.07,2.16,5.08q0,17,0,33.9c0,2.42-.24,5.37-3.11,5.45C97.46,132.78,86.93,132.61,75.11,132.61Z"/>
        </svg>
      </g>
    </g>
    <g fill="white" text-rendering="geometricPrecision" shape-rendering="geometricPrecision" transform="matrix(1.2277,0,0,1.2277,62.6116,308.1473)" stroke="white">
      <rect x="427.541" width="96.668" height="36.9766" y="-78.9983" clip-path="url(#clipPath2)" stroke="none"/>
      <rect x="427.541" y="-78.9983" clip-path="url(#clipPath2)" fill="none" width="96.668" height="36.9766" stroke-miterlimit="1.6"/>
    </g>
    <g stroke-linecap="butt" font-size="28px" transform="matrix(1.2277,0,0,1.2277,62.6116,308.1473)" fill="rgb(0,41,117)" text-rendering="geometricPrecision" font-family="sans-serif" shape-rendering="geometricPrecision" stroke="rgb(0,41,117)" stroke-miterlimit="1.45">
      <text x="429.541" xml:space="preserve" y="-49.928" clip-path="url(#clipPath2)" stroke="none">Toyota</text>
    </g>
  </g>
</svg>
